<svg width="895" height="450" viewBox="0 0 895 450" fill="none" xmlns="http://www.w3.org/2000/svg">
<g filter="url(#filter0_di_37_91)">
<path d="M4 0H891V442H4V0Z" fill="white"/>
<path d="M333.815 162.448H359.359V230.756C359.359 238.65 357.481 245.528 353.723 251.388C349.965 257.214 344.726 261.73 338.003 264.936C331.281 268.108 323.473 269.693 314.579 269.693C305.581 269.693 297.722 268.108 290.999 264.936C284.277 261.73 279.054 257.214 275.331 251.388C271.608 245.528 269.747 238.65 269.747 230.756V162.448H295.343V228.533C295.343 232.187 296.136 235.444 297.722 238.306C299.342 241.167 301.6 243.408 304.496 245.028C307.391 246.648 310.752 247.458 314.579 247.458C318.405 247.458 321.749 246.648 324.611 245.028C327.506 243.408 329.764 241.167 331.385 238.306C333.005 235.444 333.815 232.187 333.815 228.533V162.448Z" fill="#FE6B3D"/>
<path d="M167.737 183.235V162.448H257.246V183.235H225.134V268.349H199.9V183.235H167.737Z" fill="#1670C1"/>
<path d="M161.092 215.398C161.092 227.05 158.851 236.927 154.37 245.028C149.888 253.129 143.821 259.283 136.168 263.488C128.55 267.694 120 269.797 110.52 269.797C101.006 269.797 92.4391 267.677 84.8206 263.437C77.202 259.196 71.152 253.043 66.6705 244.976C62.2235 236.875 60 227.016 60 215.398C60 203.747 62.2235 193.87 66.6705 185.769C71.152 177.668 77.202 171.514 84.8206 167.309C92.4391 163.103 101.006 161 110.52 161C120 161 128.55 163.103 136.168 167.309C143.821 171.514 149.888 177.668 154.37 185.769C158.851 193.87 161.092 203.747 161.092 215.398ZM134.927 215.398C134.927 208.504 133.945 202.678 131.98 197.921C130.049 193.163 127.257 189.561 123.603 187.113C119.983 184.666 115.622 183.442 110.52 183.442C105.453 183.442 101.092 184.666 97.4377 187.113C93.7836 189.561 90.974 193.163 89.009 197.921C87.0786 202.678 86.1133 208.504 86.1133 215.398C86.1133 222.293 87.0786 228.119 89.009 232.876C90.974 237.634 93.7836 241.236 97.4377 243.684C101.092 246.131 105.453 247.355 110.52 247.355C115.622 247.355 119.983 246.131 123.603 243.684C127.257 241.236 130.049 237.634 131.98 232.876C133.945 228.119 134.927 222.293 134.927 215.398Z" fill="#043A6E"/>
<path d="M405.986 187.281C403.567 188.018 401.255 190.151 399.3 193.533C397.368 196.876 395.956 201.157 395.212 205.616C394.468 210.075 394.414 214.566 395.084 218.298C395.768 222.113 397.125 224.71 398.799 225.962L395.804 229.966C392.64 227.599 390.937 223.499 390.162 219.181C389.372 214.78 389.46 209.701 390.279 204.793C391.098 199.887 392.673 195.006 394.971 191.03C397.246 187.094 400.409 183.753 404.53 182.498L405.986 187.281Z" fill="#013C70"/>
<path d="M802.239 268.349V188.923H808.392V201.333H808.961C810.685 197.266 813.597 194.008 817.7 191.56C821.802 189.078 826.473 187.837 831.713 187.837C832.265 187.837 832.816 187.837 833.368 187.837C833.919 187.837 834.436 187.854 834.919 187.889V194.249C834.505 194.215 834.005 194.163 833.419 194.094C832.868 193.991 832.178 193.939 831.351 193.939C826.939 193.939 823.009 194.887 819.561 196.783C816.148 198.679 813.46 201.299 811.495 204.643C809.53 207.952 808.547 211.744 808.547 216.019V268.349H802.239Z" fill="#013C70"/>
<path d="M779.474 206.039L773.63 207.59C772.7 204.695 771.372 202.195 769.649 200.092C767.925 197.99 765.753 196.369 763.133 195.232C760.548 194.06 757.445 193.474 753.826 193.474C748 193.474 743.225 194.921 739.502 197.817C735.813 200.713 733.969 204.488 733.969 209.142C733.969 212.934 735.227 216.071 737.744 218.553C740.261 221 744.104 222.862 749.275 224.137L761.479 227.188C767.753 228.739 772.476 231.256 775.647 234.738C778.819 238.185 780.404 242.477 780.404 247.613C780.404 251.992 779.215 255.87 776.836 259.248C774.458 262.626 771.166 265.264 766.96 267.16C762.789 269.056 757.928 270.004 752.378 270.004C744.966 270.004 738.882 268.28 734.124 264.833C729.367 261.351 726.316 256.37 724.972 249.889L731.022 248.337C732.159 253.508 734.521 257.456 738.106 260.179C741.726 262.868 746.466 264.212 752.326 264.212C758.807 264.212 764.03 262.678 767.994 259.61C771.993 256.542 773.992 252.612 773.992 247.82C773.992 244.166 772.82 241.081 770.476 238.564C768.132 236.048 764.581 234.203 759.824 233.031L747.155 229.929C740.674 228.343 735.813 225.809 732.573 222.327C729.333 218.811 727.712 214.485 727.712 209.348C727.712 205.074 728.833 201.316 731.073 198.076C733.314 194.835 736.4 192.302 740.329 190.474C744.259 188.647 748.758 187.734 753.826 187.734C760.548 187.734 766.029 189.32 770.269 192.491C774.509 195.663 777.578 200.179 779.474 206.039Z" fill="#013C70"/>
<path d="M706.24 206.039L700.397 207.59C699.466 204.695 698.139 202.195 696.415 200.092C694.692 197.99 692.52 196.369 689.9 195.232C687.314 194.06 684.212 193.474 680.592 193.474C674.766 193.474 669.992 194.921 666.268 197.817C662.58 200.713 660.736 204.488 660.736 209.142C660.736 212.934 661.994 216.071 664.51 218.553C667.027 221 670.871 222.862 676.042 224.137L688.245 227.188C694.519 228.739 699.242 231.256 702.413 234.738C705.585 238.185 707.171 242.477 707.171 247.613C707.171 251.992 705.981 255.87 703.603 259.248C701.224 262.626 697.932 265.264 693.726 267.16C689.555 269.056 684.694 270.004 679.144 270.004C671.732 270.004 665.648 268.28 660.891 264.833C656.133 261.351 653.082 256.37 651.738 249.889L657.788 248.337C658.926 253.508 661.287 257.456 664.872 260.179C668.492 262.868 673.232 264.212 679.092 264.212C685.573 264.212 690.796 262.678 694.76 259.61C698.759 256.542 700.759 252.612 700.759 247.82C700.759 244.166 699.587 241.081 697.242 238.564C694.898 236.048 691.348 234.203 686.59 233.031L673.922 229.929C667.441 228.343 662.58 225.809 659.339 222.327C656.099 218.811 654.479 214.485 654.479 209.348C654.479 205.074 655.599 201.316 657.84 198.076C660.081 194.835 663.166 192.302 667.096 190.474C671.026 188.647 675.525 187.734 680.592 187.734C687.314 187.734 692.795 189.32 697.036 192.491C701.276 195.663 704.344 200.179 706.24 206.039Z" fill="#013C70"/>
<path d="M602.562 270.004C595.392 270.004 589.152 268.228 583.843 264.678C578.535 261.127 574.432 256.266 571.536 250.096C568.641 243.925 567.193 236.892 567.193 228.998C567.193 221.069 568.641 214.002 571.536 207.797C574.467 201.592 578.483 196.697 583.585 193.112C588.687 189.526 594.513 187.734 601.063 187.734C605.51 187.734 609.715 188.63 613.68 190.423C617.679 192.181 621.195 194.732 624.229 198.076C627.297 201.42 629.692 205.453 631.416 210.176C633.174 214.899 634.053 220.207 634.053 226.102V230.032H571.174V224.292H627.745C627.745 218.535 626.573 213.347 624.229 208.728C621.884 204.109 618.696 200.437 614.662 197.714C610.629 194.99 606.096 193.629 601.063 193.629C595.788 193.629 591.083 195.111 586.946 198.076C582.844 201.006 579.586 204.97 577.173 209.969C574.794 214.968 573.553 220.552 573.45 226.723V229.308C573.45 235.927 574.605 241.874 576.914 247.148C579.258 252.388 582.602 256.542 586.946 259.61C591.29 262.644 596.495 264.161 602.562 264.161C606.906 264.161 610.612 263.437 613.68 261.989C616.782 260.506 619.316 258.714 621.281 256.611C623.246 254.508 624.728 252.474 625.728 250.509L631.468 252.836C630.261 255.491 628.383 258.145 625.832 260.799C623.315 263.419 620.109 265.608 616.214 267.367C612.353 269.125 607.802 270.004 602.562 270.004Z" fill="#013C70"/>
<path d="M539.14 240.167V188.923H545.449V268.349H539.14V255.473H538.623C536.762 259.576 533.745 262.919 529.574 265.505C525.437 268.09 520.542 269.383 514.889 269.383C509.683 269.383 505.081 268.246 501.082 265.97C497.083 263.695 493.946 260.472 491.671 256.301C489.396 252.095 488.258 247.096 488.258 241.305V188.923H494.567V241.046C494.567 247.665 496.566 253.026 500.565 257.128C504.598 261.196 509.804 263.23 516.181 263.23C520.318 263.23 524.127 262.299 527.609 260.437C531.091 258.576 533.883 255.921 535.986 252.474C538.089 248.992 539.14 244.89 539.14 240.167Z" fill="#013C70"/>
<path d="M456.897 195.542C456.104 191.957 454.759 188.492 452.863 185.148C450.967 181.77 448.537 178.736 445.572 176.047C442.642 173.324 439.195 171.17 435.23 169.584C431.3 167.998 426.888 167.205 421.993 167.205C414.512 167.205 407.876 169.17 402.084 173.1C396.327 176.995 391.811 182.563 388.537 189.802C385.296 197.007 383.676 205.539 383.676 215.398C383.676 225.154 385.296 233.652 388.537 240.891C391.777 248.131 396.31 253.732 402.136 257.697C407.997 261.627 414.805 263.592 422.561 263.592C429.49 263.592 435.627 261.989 440.97 258.783C446.348 255.577 450.536 250.992 453.535 245.028C456.535 239.064 458 231.928 457.931 223.62L460.206 224.706H424.216V218.708H464.239V224.706C464.239 234.048 462.447 242.098 458.861 248.854C455.311 255.577 450.381 260.748 444.073 264.367C437.798 267.987 430.628 269.797 422.561 269.797C413.461 269.797 405.515 267.539 398.723 263.023C391.932 258.507 386.658 252.181 382.9 244.046C379.177 235.875 377.316 226.326 377.316 215.398C377.316 207.194 378.384 199.748 380.522 193.06C382.659 186.372 385.71 180.65 389.674 175.892C393.639 171.101 398.361 167.429 403.843 164.878C409.324 162.293 415.374 161 421.993 161C427.991 161 433.386 162 438.178 163.999C442.969 165.964 447.106 168.619 450.588 171.962C454.104 175.272 456.948 178.978 459.12 183.08C461.292 187.148 462.757 191.302 463.515 195.542H456.897Z" fill="#013C70"/>
<path d="M450.039 297.648C444.125 290.517 445.112 279.941 452.244 274.027C459.375 268.113 469.951 269.1 475.865 276.231L514.339 322.624C520.253 329.756 519.266 340.332 512.135 346.246C505.003 352.16 494.428 351.173 488.513 344.042L450.039 297.648Z" fill="#013C70"/>
<path d="M434.975 267.388L438.808 263.978L451.875 278.666L448.042 282.076L434.975 267.388Z" fill="#013C70"/>
<path d="M444.397 259.793L448.23 256.383L461.298 271.071L457.464 274.481L444.397 259.793Z" fill="#013C70"/>
<path d="M820.729 307.616C820.441 307.616 820.209 307.528 820.033 307.352C819.873 307.192 819.793 306.968 819.793 306.68V295.352C819.809 294.104 820.105 292.984 820.681 291.992C821.273 290.984 822.065 290.192 823.057 289.616C824.065 289.04 825.193 288.752 826.441 288.752C827.721 288.752 828.865 289.048 829.873 289.64C830.881 290.216 831.673 291.008 832.249 292.016C832.841 293.024 833.137 294.168 833.137 295.448C833.137 296.712 832.849 297.848 832.273 298.856C831.713 299.864 830.945 300.664 829.969 301.256C828.993 301.832 827.889 302.12 826.657 302.12C825.585 302.12 824.609 301.896 823.729 301.448C822.865 300.984 822.169 300.376 821.641 299.624V306.68C821.641 306.968 821.553 307.192 821.377 307.352C821.217 307.528 821.001 307.616 820.729 307.616ZM826.441 300.44C827.369 300.44 828.201 300.224 828.937 299.792C829.673 299.36 830.249 298.768 830.665 298.016C831.097 297.248 831.313 296.392 831.313 295.448C831.313 294.488 831.097 293.632 830.665 292.88C830.249 292.128 829.673 291.536 828.937 291.104C828.201 290.656 827.369 290.432 826.441 290.432C825.529 290.432 824.705 290.656 823.969 291.104C823.233 291.536 822.657 292.128 822.241 292.88C821.825 293.632 821.617 294.488 821.617 295.448C821.617 296.392 821.825 297.248 822.241 298.016C822.657 298.768 823.233 299.36 823.969 299.792C824.705 300.224 825.529 300.44 826.441 300.44Z" fill="#013C70"/>
<path d="M809.335 302.12C808.103 302.12 806.999 301.832 806.023 301.256C805.047 300.664 804.271 299.864 803.695 298.856C803.135 297.848 802.855 296.712 802.855 295.448C802.855 294.168 803.143 293.024 803.719 292.016C804.311 291.008 805.111 290.216 806.119 289.64C807.127 289.048 808.263 288.752 809.527 288.752C810.791 288.752 811.919 289.048 812.911 289.64C813.919 290.216 814.711 291.008 815.287 292.016C815.879 293.024 816.183 294.168 816.199 295.448L815.455 296.024C815.455 297.176 815.183 298.216 814.639 299.144C814.111 300.056 813.383 300.784 812.455 301.328C811.543 301.856 810.503 302.12 809.335 302.12ZM809.527 300.44C810.455 300.44 811.279 300.224 811.999 299.792C812.735 299.36 813.311 298.768 813.727 298.016C814.159 297.248 814.375 296.392 814.375 295.448C814.375 294.488 814.159 293.632 813.727 292.88C813.311 292.128 812.735 291.536 811.999 291.104C811.279 290.656 810.455 290.432 809.527 290.432C808.615 290.432 807.791 290.656 807.055 291.104C806.319 291.536 805.735 292.128 805.303 292.88C804.871 293.632 804.655 294.488 804.655 295.448C804.655 296.392 804.871 297.248 805.303 298.016C805.735 298.768 806.319 299.36 807.055 299.792C807.791 300.224 808.615 300.44 809.527 300.44ZM815.263 302C814.991 302 814.767 301.92 814.591 301.76C814.415 301.584 814.327 301.36 814.327 301.088V296.984L814.783 295.088L816.199 295.448V301.088C816.199 301.36 816.111 301.584 815.935 301.76C815.759 301.92 815.535 302 815.263 302Z" fill="#013C70"/>
<path d="M798.552 302C798.28 302 798.056 301.92 797.88 301.76C797.704 301.584 797.616 301.36 797.616 301.088V294.176C797.616 293.04 797.32 292.144 796.728 291.488C796.136 290.816 795.376 290.48 794.448 290.48C793.456 290.48 792.64 290.816 792 291.488C791.376 292.144 791.072 293.024 791.088 294.128H789.432C789.448 293.056 789.68 292.112 790.128 291.296C790.576 290.48 791.192 289.848 791.976 289.4C792.76 288.952 793.648 288.728 794.64 288.728C795.584 288.728 796.416 288.952 797.136 289.4C797.872 289.848 798.44 290.48 798.84 291.296C799.256 292.112 799.464 293.072 799.464 294.176V301.088C799.464 301.36 799.376 301.584 799.2 301.76C799.04 301.92 798.824 302 798.552 302ZM781.752 302C781.464 302 781.232 301.92 781.056 301.76C780.896 301.584 780.816 301.36 780.816 301.088V289.808C780.816 289.536 780.896 289.312 781.056 289.136C781.232 288.96 781.464 288.872 781.752 288.872C782.024 288.872 782.24 288.96 782.4 289.136C782.576 289.312 782.664 289.536 782.664 289.808V301.088C782.664 301.36 782.576 301.584 782.4 301.76C782.24 301.92 782.024 302 781.752 302ZM790.176 302C789.904 302 789.68 301.92 789.504 301.76C789.328 301.584 789.24 301.36 789.24 301.088V294.176C789.24 293.04 788.944 292.144 788.352 291.488C787.76 290.816 787 290.48 786.072 290.48C785.08 290.48 784.264 290.808 783.624 291.464C782.984 292.104 782.664 292.944 782.664 293.984H781.344C781.376 292.96 781.6 292.056 782.016 291.272C782.448 290.472 783.032 289.848 783.768 289.4C784.504 288.952 785.336 288.728 786.264 288.728C787.208 288.728 788.04 288.952 788.76 289.4C789.496 289.848 790.064 290.48 790.464 291.296C790.88 292.112 791.088 293.072 791.088 294.176V301.088C791.088 301.36 791 301.584 790.824 301.76C790.664 301.92 790.448 302 790.176 302Z" fill="#013C70"/>
<path d="M764.995 302.12C763.699 302.12 762.547 301.84 761.539 301.28C760.547 300.704 759.763 299.912 759.187 298.904C758.627 297.896 758.347 296.744 758.347 295.448C758.347 294.136 758.611 292.984 759.139 291.992C759.683 290.984 760.427 290.192 761.371 289.616C762.315 289.04 763.403 288.752 764.635 288.752C765.851 288.752 766.907 289.032 767.803 289.592C768.715 290.136 769.419 290.896 769.915 291.872C770.411 292.848 770.659 293.96 770.659 295.208C770.659 295.464 770.579 295.672 770.419 295.832C770.259 295.976 770.051 296.048 769.795 296.048H759.595V294.512H769.987L768.955 295.256C768.971 294.328 768.803 293.496 768.451 292.76C768.099 292.024 767.595 291.448 766.939 291.032C766.299 290.616 765.531 290.408 764.635 290.408C763.723 290.408 762.923 290.624 762.235 291.056C761.547 291.488 761.011 292.088 760.627 292.856C760.259 293.608 760.075 294.472 760.075 295.448C760.075 296.424 760.283 297.288 760.699 298.04C761.131 298.792 761.715 299.384 762.451 299.816C763.187 300.248 764.035 300.464 764.995 300.464C765.571 300.464 766.147 300.368 766.723 300.176C767.315 299.968 767.787 299.712 768.139 299.408C768.315 299.264 768.515 299.192 768.739 299.192C768.963 299.176 769.155 299.232 769.315 299.36C769.523 299.552 769.627 299.76 769.627 299.984C769.643 300.208 769.555 300.4 769.363 300.56C768.835 301.008 768.163 301.384 767.347 301.688C766.531 301.976 765.747 302.12 764.995 302.12Z" fill="#013C70"/>
<path d="M743.737 296.648C743.449 296.648 743.217 296.56 743.041 296.384C742.881 296.208 742.801 295.984 742.801 295.712V284.192C742.801 283.904 742.881 283.68 743.041 283.52C743.217 283.344 743.449 283.256 743.737 283.256C744.009 283.256 744.225 283.344 744.385 283.52C744.561 283.68 744.649 283.904 744.649 284.192V295.712C744.649 295.984 744.561 296.208 744.385 296.384C744.225 296.56 744.009 296.648 743.737 296.648ZM754.057 302C753.785 302 753.561 301.912 753.385 301.736C753.209 301.56 753.121 301.344 753.121 301.088V294.848C753.121 293.856 752.929 293.04 752.545 292.4C752.177 291.76 751.665 291.28 751.009 290.96C750.369 290.64 749.641 290.48 748.825 290.48C748.041 290.48 747.329 290.632 746.689 290.936C746.065 291.24 745.569 291.656 745.201 292.184C744.833 292.712 744.649 293.312 744.649 293.984H743.329C743.361 292.976 743.633 292.08 744.145 291.296C744.657 290.496 745.337 289.872 746.185 289.424C747.033 288.96 747.977 288.728 749.017 288.728C750.153 288.728 751.169 288.968 752.065 289.448C752.961 289.912 753.665 290.6 754.177 291.512C754.705 292.424 754.969 293.536 754.969 294.848V301.088C754.969 301.344 754.881 301.56 754.705 301.736C754.529 301.912 754.313 302 754.057 302ZM743.737 302C743.449 302 743.217 301.92 743.041 301.76C742.881 301.584 742.801 301.36 742.801 301.088V289.808C742.801 289.52 742.881 289.296 743.041 289.136C743.217 288.96 743.449 288.872 743.737 288.872C744.009 288.872 744.225 288.96 744.385 289.136C744.561 289.296 744.649 289.52 744.649 289.808V301.088C744.649 301.36 744.561 301.584 744.385 301.76C744.225 301.92 744.009 302 743.737 302Z" fill="#013C70"/>
<path d="M738.28 302C737.432 302 736.672 301.8 736 301.4C735.344 301 734.824 300.456 734.44 299.768C734.056 299.064 733.864 298.264 733.864 297.368V285.632C733.864 285.36 733.944 285.136 734.104 284.96C734.28 284.784 734.504 284.696 734.776 284.696C735.048 284.696 735.272 284.784 735.448 284.96C735.624 285.136 735.712 285.36 735.712 285.632V297.368C735.712 298.184 735.952 298.856 736.432 299.384C736.912 299.896 737.528 300.152 738.28 300.152H738.928C739.184 300.152 739.392 300.24 739.552 300.416C739.712 300.592 739.792 300.816 739.792 301.088C739.792 301.36 739.696 301.584 739.504 301.76C739.312 301.92 739.072 302 738.784 302H738.28ZM732.304 290.96C732.064 290.96 731.864 290.888 731.704 290.744C731.544 290.584 731.464 290.392 731.464 290.168C731.464 289.928 731.544 289.736 731.704 289.592C731.864 289.432 732.064 289.352 732.304 289.352H738.424C738.664 289.352 738.864 289.432 739.024 289.592C739.184 289.736 739.264 289.928 739.264 290.168C739.264 290.392 739.184 290.584 739.024 290.744C738.864 290.888 738.664 290.96 738.424 290.96H732.304Z" fill="#013C70"/>
<path d="M721.127 302C720.855 302 720.631 301.912 720.455 301.736C720.279 301.56 720.191 301.344 720.191 301.088V294.848C720.191 293.856 719.999 293.04 719.615 292.4C719.247 291.76 718.735 291.28 718.079 290.96C717.439 290.64 716.711 290.48 715.895 290.48C715.111 290.48 714.399 290.632 713.759 290.936C713.135 291.24 712.639 291.656 712.271 292.184C711.903 292.712 711.719 293.312 711.719 293.984H710.399C710.431 292.976 710.703 292.08 711.215 291.296C711.727 290.496 712.407 289.872 713.255 289.424C714.103 288.96 715.047 288.728 716.087 288.728C717.223 288.728 718.239 288.968 719.135 289.448C720.031 289.912 720.735 290.6 721.247 291.512C721.775 292.424 722.039 293.536 722.039 294.848V301.088C722.039 301.344 721.951 301.56 721.775 301.736C721.599 301.912 721.383 302 721.127 302ZM710.807 302C710.519 302 710.287 301.92 710.111 301.76C709.951 301.584 709.871 301.36 709.871 301.088V289.808C709.871 289.52 709.951 289.296 710.111 289.136C710.287 288.96 710.519 288.872 710.807 288.872C711.079 288.872 711.295 288.96 711.455 289.136C711.631 289.296 711.719 289.52 711.719 289.808V301.088C711.719 301.36 711.631 301.584 711.455 301.76C711.295 301.92 711.079 302 710.807 302Z" fill="#013C70"/>
<path d="M699.605 302.12C698.325 302.12 697.181 301.832 696.173 301.256C695.165 300.68 694.373 299.888 693.797 298.88C693.221 297.872 692.933 296.728 692.933 295.448C692.933 294.152 693.221 293 693.797 291.992C694.373 290.984 695.165 290.192 696.173 289.616C697.181 289.04 698.325 288.752 699.605 288.752C700.885 288.752 702.021 289.04 703.013 289.616C704.021 290.192 704.813 290.984 705.389 291.992C705.965 293 706.261 294.152 706.277 295.448C706.277 296.728 705.981 297.872 705.389 298.88C704.813 299.888 704.021 300.68 703.013 301.256C702.021 301.832 700.885 302.12 699.605 302.12ZM699.605 300.44C700.533 300.44 701.365 300.224 702.101 299.792C702.837 299.36 703.413 298.768 703.829 298.016C704.245 297.264 704.453 296.408 704.453 295.448C704.453 294.488 704.245 293.632 703.829 292.88C703.413 292.112 702.837 291.512 702.101 291.08C701.365 290.648 700.533 290.432 699.605 290.432C698.677 290.432 697.845 290.648 697.109 291.08C696.373 291.512 695.789 292.112 695.357 292.88C694.941 293.632 694.733 294.488 694.733 295.448C694.733 296.408 694.941 297.264 695.357 298.016C695.789 298.768 696.373 299.36 697.109 299.792C697.845 300.224 698.677 300.44 699.605 300.44Z" fill="#013C70"/>
<path d="M674.637 302.384C673.181 302.384 671.886 302.104 670.75 301.544C669.63 300.984 668.749 300.208 668.109 299.216C667.485 298.224 667.173 297.088 667.173 295.808V284.192C667.173 283.92 667.261 283.696 667.438 283.52C667.613 283.344 667.837 283.256 668.109 283.256C668.381 283.256 668.605 283.344 668.781 283.52C668.957 283.696 669.046 283.92 669.046 284.192V295.808C669.046 296.752 669.277 297.584 669.741 298.304C670.221 299.024 670.886 299.592 671.734 300.008C672.582 300.408 673.549 300.608 674.637 300.608C675.709 300.608 676.662 300.408 677.494 300.008C678.326 299.592 678.974 299.024 679.438 298.304C679.918 297.584 680.157 296.752 680.157 295.808V284.192C680.157 283.92 680.246 283.696 680.422 283.52C680.598 283.344 680.822 283.256 681.094 283.256C681.382 283.256 681.606 283.344 681.766 283.52C681.942 283.696 682.03 283.92 682.03 284.192V295.808C682.03 297.088 681.709 298.224 681.069 299.216C680.445 300.208 679.573 300.984 678.453 301.544C677.349 302.104 676.077 302.384 674.637 302.384Z" fill="#013C70"/>
<path d="M656.895 302C656.639 302 656.415 301.912 656.223 301.736C656.047 301.544 655.959 301.32 655.959 301.064V283.256H657.831V301.064C657.831 301.32 657.743 301.544 657.567 301.736C657.391 301.912 657.167 302 656.895 302ZM650.271 284.96C650.015 284.96 649.807 284.88 649.647 284.72C649.487 284.56 649.407 284.36 649.407 284.12C649.407 283.864 649.487 283.656 649.647 283.496C649.807 283.336 650.015 283.256 650.271 283.256H663.543C663.799 283.256 664.007 283.336 664.167 283.496C664.327 283.656 664.407 283.864 664.407 284.12C664.407 284.36 664.327 284.56 664.167 284.72C664.007 284.88 663.799 284.96 663.543 284.96H650.271Z" fill="#013C70"/>
<path d="M639.439 302.24C638.047 302.24 636.767 302 635.599 301.52C634.431 301.04 633.415 300.368 632.551 299.504C631.703 298.64 631.039 297.624 630.559 296.456C630.095 295.288 629.863 294.008 629.863 292.616C629.863 291.24 630.095 289.968 630.559 288.8C631.039 287.632 631.703 286.616 632.551 285.752C633.415 284.888 634.431 284.216 635.599 283.736C636.767 283.256 638.047 283.016 639.439 283.016C640.815 283.016 642.087 283.256 643.255 283.736C644.423 284.216 645.439 284.888 646.303 285.752C647.167 286.616 647.831 287.632 648.295 288.8C648.775 289.968 649.015 291.24 649.015 292.616C649.015 294.008 648.775 295.288 648.295 296.456C647.831 297.624 647.167 298.64 646.303 299.504C645.439 300.368 644.423 301.04 643.255 301.52C642.087 302 640.815 302.24 639.439 302.24ZM639.439 300.464C640.543 300.464 641.567 300.272 642.511 299.888C643.455 299.488 644.271 298.936 644.959 298.232C645.663 297.512 646.207 296.68 646.591 295.736C646.975 294.776 647.167 293.736 647.167 292.616C647.167 291.512 646.975 290.488 646.591 289.544C646.207 288.584 645.663 287.752 644.959 287.048C644.271 286.328 643.455 285.776 642.511 285.392C641.567 284.992 640.543 284.792 639.439 284.792C638.319 284.792 637.287 284.992 636.343 285.392C635.399 285.776 634.575 286.328 633.871 287.048C633.183 287.752 632.647 288.584 632.263 289.544C631.879 290.488 631.687 291.512 631.687 292.616C631.687 293.736 631.879 294.776 632.263 295.736C632.647 296.68 633.183 297.512 633.871 298.232C634.575 298.936 635.399 299.488 636.343 299.888C637.287 300.272 638.319 300.464 639.439 300.464Z" fill="#013C70"/>
<path d="M613.046 302.12C611.782 302.12 610.662 301.84 609.686 301.28C608.71 300.704 607.942 299.912 607.382 298.904C606.838 297.896 606.566 296.744 606.566 295.448C606.566 294.136 606.854 292.976 607.43 291.968C608.006 290.96 608.798 290.176 609.806 289.616C610.814 289.04 611.958 288.752 613.238 288.752C614.534 288.752 615.678 289.04 616.67 289.616C617.678 290.176 618.462 290.96 619.022 291.968C619.598 292.976 619.894 294.136 619.91 295.448L618.83 296.024C618.83 297.208 618.582 298.264 618.086 299.192C617.59 300.104 616.902 300.824 616.022 301.352C615.158 301.864 614.166 302.12 613.046 302.12ZM613.286 307.184C612.022 307.184 610.91 306.944 609.95 306.464C608.99 306 608.198 305.36 607.574 304.544C607.398 304.352 607.318 304.144 607.334 303.92C607.366 303.696 607.486 303.512 607.694 303.368C607.902 303.224 608.134 303.176 608.39 303.224C608.646 303.272 608.846 303.392 608.99 303.584C609.454 304.16 610.046 304.624 610.766 304.976C611.502 305.328 612.35 305.504 613.31 305.504C614.206 305.504 615.014 305.288 615.734 304.856C616.454 304.424 617.022 303.816 617.438 303.032C617.87 302.248 618.086 301.328 618.086 300.272V296.624L618.782 295.232L619.91 295.448V300.344C619.91 301.64 619.622 302.8 619.046 303.824C618.47 304.864 617.686 305.68 616.694 306.272C615.702 306.88 614.566 307.184 613.286 307.184ZM613.238 300.44C614.182 300.44 615.014 300.232 615.734 299.816C616.47 299.384 617.046 298.792 617.462 298.04C617.878 297.288 618.086 296.424 618.086 295.448C618.086 294.472 617.878 293.608 617.462 292.856C617.046 292.088 616.47 291.496 615.734 291.08C615.014 290.648 614.182 290.432 613.238 290.432C612.294 290.432 611.454 290.648 610.718 291.08C609.982 291.496 609.406 292.088 608.99 292.856C608.574 293.608 608.366 294.472 608.366 295.448C608.366 296.424 608.574 297.288 608.99 298.04C609.406 298.792 609.982 299.384 610.718 299.816C611.454 300.232 612.294 300.44 613.238 300.44Z" fill="#013C70"/>
<path d="M602.275 302C602.003 302 601.779 301.912 601.603 301.736C601.427 301.56 601.339 301.344 601.339 301.088V294.848C601.339 293.856 601.147 293.04 600.763 292.4C600.395 291.76 599.883 291.28 599.227 290.96C598.587 290.64 597.859 290.48 597.043 290.48C596.259 290.48 595.547 290.632 594.907 290.936C594.283 291.24 593.787 291.656 593.419 292.184C593.051 292.712 592.867 293.312 592.867 293.984H591.547C591.579 292.976 591.851 292.08 592.363 291.296C592.875 290.496 593.555 289.872 594.403 289.424C595.251 288.96 596.195 288.728 597.235 288.728C598.371 288.728 599.387 288.968 600.283 289.448C601.179 289.912 601.883 290.6 602.395 291.512C602.923 292.424 603.187 293.536 603.187 294.848V301.088C603.187 301.344 603.099 301.56 602.923 301.736C602.747 301.912 602.531 302 602.275 302ZM591.955 302C591.667 302 591.435 301.92 591.259 301.76C591.099 301.584 591.019 301.36 591.019 301.088V289.808C591.019 289.52 591.099 289.296 591.259 289.136C591.435 288.96 591.667 288.872 591.955 288.872C592.227 288.872 592.443 288.96 592.603 289.136C592.779 289.296 592.867 289.52 592.867 289.808V301.088C592.867 301.36 592.779 301.584 592.603 301.76C592.443 301.92 592.227 302 591.955 302Z" fill="#013C70"/>
<path d="M585.402 302C585.114 302 584.882 301.92 584.706 301.76C584.546 301.584 584.466 301.352 584.466 301.064V289.808C584.466 289.52 584.546 289.296 584.706 289.136C584.882 288.96 585.114 288.872 585.402 288.872C585.674 288.872 585.89 288.96 586.05 289.136C586.226 289.296 586.314 289.52 586.314 289.808V301.064C586.314 301.352 586.226 301.584 586.05 301.76C585.89 301.92 585.674 302 585.402 302ZM585.378 286.376C585.026 286.376 584.722 286.248 584.466 285.992C584.21 285.736 584.082 285.424 584.082 285.056C584.082 284.656 584.21 284.344 584.466 284.12C584.738 283.88 585.05 283.76 585.402 283.76C585.738 283.76 586.034 283.88 586.29 284.12C586.562 284.344 586.698 284.656 586.698 285.056C586.698 285.424 586.57 285.736 586.314 285.992C586.058 286.248 585.746 286.376 585.378 286.376Z" fill="#013C70"/>
<path d="M579.562 302C578.714 302 577.954 301.8 577.282 301.4C576.626 301 576.106 300.456 575.722 299.768C575.338 299.064 575.146 298.264 575.146 297.368V285.632C575.146 285.36 575.226 285.136 575.386 284.96C575.562 284.784 575.786 284.696 576.058 284.696C576.33 284.696 576.554 284.784 576.73 284.96C576.906 285.136 576.994 285.36 576.994 285.632V297.368C576.994 298.184 577.234 298.856 577.714 299.384C578.194 299.896 578.81 300.152 579.562 300.152H580.21C580.466 300.152 580.674 300.24 580.834 300.416C580.994 300.592 581.074 300.816 581.074 301.088C581.074 301.36 580.978 301.584 580.786 301.76C580.594 301.92 580.354 302 580.066 302H579.562ZM573.586 290.96C573.346 290.96 573.146 290.888 572.986 290.744C572.826 290.584 572.746 290.392 572.746 290.168C572.746 289.928 572.826 289.736 572.986 289.592C573.146 289.432 573.346 289.352 573.586 289.352H579.706C579.946 289.352 580.146 289.432 580.306 289.592C580.466 289.736 580.546 289.928 580.546 290.168C580.546 290.392 580.466 290.584 580.306 290.744C580.146 290.888 579.946 290.96 579.706 290.96H573.586Z" fill="#013C70"/>
<path d="M569.905 302C569.057 302 568.297 301.8 567.625 301.4C566.969 301 566.449 300.456 566.065 299.768C565.681 299.064 565.489 298.264 565.489 297.368V285.632C565.489 285.36 565.569 285.136 565.729 284.96C565.905 284.784 566.129 284.696 566.401 284.696C566.673 284.696 566.897 284.784 567.073 284.96C567.249 285.136 567.337 285.36 567.337 285.632V297.368C567.337 298.184 567.577 298.856 568.057 299.384C568.537 299.896 569.153 300.152 569.905 300.152H570.553C570.809 300.152 571.017 300.24 571.177 300.416C571.337 300.592 571.417 300.816 571.417 301.088C571.417 301.36 571.321 301.584 571.129 301.76C570.937 301.92 570.697 302 570.409 302H569.905ZM563.929 290.96C563.689 290.96 563.489 290.888 563.329 290.744C563.169 290.584 563.089 290.392 563.089 290.168C563.089 289.928 563.169 289.736 563.329 289.592C563.489 289.432 563.689 289.352 563.929 289.352H570.049C570.289 289.352 570.489 289.432 570.649 289.592C570.809 289.736 570.889 289.928 570.889 290.168C570.889 290.392 570.809 290.584 570.649 290.744C570.489 290.888 570.289 290.96 570.049 290.96H563.929Z" fill="#013C70"/>
<path d="M554.239 302.144C553.103 302.144 552.087 301.912 551.191 301.448C550.295 300.968 549.583 300.272 549.055 299.36C548.543 298.448 548.287 297.336 548.287 296.024V289.784C548.287 289.528 548.375 289.312 548.551 289.136C548.727 288.96 548.943 288.872 549.199 288.872C549.471 288.872 549.695 288.96 549.871 289.136C550.047 289.312 550.135 289.528 550.135 289.784V296.024C550.135 297.016 550.319 297.832 550.687 298.472C551.071 299.112 551.583 299.592 552.223 299.912C552.879 300.232 553.615 300.392 554.431 300.392C555.215 300.392 555.919 300.24 556.543 299.936C557.183 299.632 557.687 299.216 558.055 298.688C558.423 298.16 558.607 297.56 558.607 296.888H559.927C559.879 297.896 559.599 298.8 559.087 299.6C558.591 300.384 557.919 301.008 557.071 301.472C556.223 301.92 555.279 302.144 554.239 302.144ZM559.519 302C559.247 302 559.023 301.92 558.847 301.76C558.687 301.584 558.607 301.352 558.607 301.064V289.784C558.607 289.512 558.687 289.296 558.847 289.136C559.023 288.96 559.247 288.872 559.519 288.872C559.791 288.872 560.015 288.96 560.191 289.136C560.367 289.296 560.455 289.512 560.455 289.784V301.064C560.455 301.352 560.367 301.584 560.191 301.76C560.015 301.92 559.791 302 559.519 302Z" fill="#013C70"/>
<path d="M532.494 307.616C532.206 307.616 531.974 307.528 531.798 307.352C531.638 307.192 531.558 306.968 531.558 306.68V295.352C531.574 294.104 531.87 292.984 532.446 291.992C533.038 290.984 533.83 290.192 534.822 289.616C535.83 289.04 536.958 288.752 538.206 288.752C539.486 288.752 540.63 289.048 541.638 289.64C542.646 290.216 543.438 291.008 544.014 292.016C544.606 293.024 544.902 294.168 544.902 295.448C544.902 296.712 544.614 297.848 544.038 298.856C543.478 299.864 542.71 300.664 541.734 301.256C540.758 301.832 539.654 302.12 538.422 302.12C537.35 302.12 536.374 301.896 535.494 301.448C534.63 300.984 533.934 300.376 533.406 299.624V306.68C533.406 306.968 533.318 307.192 533.142 307.352C532.982 307.528 532.766 307.616 532.494 307.616ZM538.206 300.44C539.134 300.44 539.966 300.224 540.702 299.792C541.438 299.36 542.014 298.768 542.43 298.016C542.862 297.248 543.078 296.392 543.078 295.448C543.078 294.488 542.862 293.632 542.43 292.88C542.014 292.128 541.438 291.536 540.702 291.104C539.966 290.656 539.134 290.432 538.206 290.432C537.294 290.432 536.47 290.656 535.734 291.104C534.998 291.536 534.422 292.128 534.006 292.88C533.59 293.632 533.382 294.488 533.382 295.448C533.382 296.392 533.59 297.248 534.006 298.016C534.422 298.768 534.998 299.36 535.734 299.792C536.47 300.224 537.294 300.44 538.206 300.44Z" fill="#013C70"/>
</g>
<defs>
<filter id="filter0_di_37_91" x="0" y="0" width="895" height="450" filterUnits="userSpaceOnUse" color-interpolation-filters="sRGB">
<feFlood flood-opacity="0" result="BackgroundImageFix"/>
<feColorMatrix in="SourceAlpha" type="matrix" values="0 0 0 0 0 0 0 0 0 0 0 0 0 0 0 0 0 0 127 0" result="hardAlpha"/>
<feOffset dy="4"/>
<feGaussianBlur stdDeviation="2"/>
<feComposite in2="hardAlpha" operator="out"/>
<feColorMatrix type="matrix" values="0 0 0 0 0 0 0 0 0 0 0 0 0 0 0 0 0 0 0.25 0"/>
<feBlend mode="normal" in2="BackgroundImageFix" result="effect1_dropShadow_37_91"/>
<feBlend mode="normal" in="SourceGraphic" in2="effect1_dropShadow_37_91" result="shape"/>
<feColorMatrix in="SourceAlpha" type="matrix" values="0 0 0 0 0 0 0 0 0 0 0 0 0 0 0 0 0 0 127 0" result="hardAlpha"/>
<feOffset dy="4"/>
<feGaussianBlur stdDeviation="2"/>
<feComposite in2="hardAlpha" operator="arithmetic" k2="-1" k3="1"/>
<feColorMatrix type="matrix" values="0 0 0 0 0 0 0 0 0 0 0 0 0 0 0 0 0 0 0.25 0"/>
<feBlend mode="normal" in2="shape" result="effect2_innerShadow_37_91"/>
</filter>
</defs>
</svg>
